<?xml version="1.0" encoding="UTF-8"?>
<svg id="Layer_1" xmlns="http://www.w3.org/2000/svg" version="1.1" viewBox="0 0 1190.6 841.9">
  <!-- Generator: Adobe Illustrator 29.1.0, SVG Export Plug-In . SVG Version: 2.1.0 Build 142)  -->
  <defs>
    <style>
      .st0 {
        fill: #785da8;
      }

      .st1 {
        fill: #fff;
      }
    </style>
  </defs>
  <rect class="st0" x="495.1" y="320.8" width="200.4" height="200.4" rx="28.3" ry="28.3"/>
  <g>
    <path class="st1" d="M580.5,450.2c-5.4,0-10.3-1-14.8-3-4.5-2-8.1-5.1-10.8-9.5-2.7-4.4-4-10.2-4-17.5v-39.1c0-7.3,1.3-13.1,4-17.5,2.7-4.4,6.3-7.6,10.9-9.5,4.6-2,9.5-3,14.9-3s11.5,1.1,16.1,3.2c4.5,2.1,8.1,5,10.6,8.6,2.6,3.6,3.8,7.8,3.8,12.6s-.6,5-1.7,6c-1.2.9-3,1.4-5.4,1.4s-3.9-.4-5.1-1.1c-1.3-.8-1.9-1.9-2-3.6,0-1.2-.3-2.6-.7-4.2-.4-1.6-1.1-3.2-2.1-4.8-1-1.6-2.6-2.9-4.6-3.9-2.1-1-4.9-1.5-8.5-1.5-5.2,0-9.2,1.4-12,4.2-2.8,2.8-4.2,7.2-4.2,13.1v39.1c0,5.9,1.4,10.3,4.2,13.1s6.9,4.2,12.3,4.2,6.1-.5,8.1-1.5c2-1,3.5-2.3,4.5-3.9,1-1.6,1.7-3.2,2-5,.4-1.7.6-3.3.8-4.8,0-1.7.8-2.9,2.1-3.6,1.3-.7,2.9-1.1,4.9-1.1s4.3.5,5.5,1.5c1.2,1,1.7,3,1.7,5.9,0,4.8-1.3,9.2-3.8,13-2.6,3.8-6.1,6.8-10.7,8.9-4.6,2.1-9.9,3.2-16.1,3.2Z"/>
    <path class="st1" d="M607.4,490.7c-5.7,0-10.7-1-14.9-2.9-4-1.9-7.2-4.5-9.5-7.7-2.2-3.2-3.3-6.7-3.3-10.9s.7-3.8.7-3.8c.4-.3,1.3-.8,3.6-.8s2.8.3,3.6.7c.3.2.6.4.7,1.3.1,1.4.4,2.9.7,4.6.4,1.9,1.3,3.9,2.5,5.7,1.3,2,3.2,3.6,5.7,4.9,2.5,1.2,5.7,1.8,9.7,1.8,6,0,10.7-1.7,14-5.1,3.3-3.4,5-8.4,5-15.1v-39.1c0-6.7-1.7-11.7-5.1-15.1-3.4-3.4-8.2-5.1-14.3-5.1s-7,.6-9.4,1.9c-2.5,1.3-4.3,2.9-5.6,4.9-1.2,1.8-2,3.8-2.4,5.9-.4,1.8-.7,3.5-.8,5h0c0,.1,0,.2,0,.2,0,1-.4,1.2-.6,1.3-.9.5-2.1.7-3.5.7-2.4,0-3.3-.5-3.7-.8,0,0-.7-.7-.7-3.7s1.1-8,3.3-11.4c2.2-3.4,5.5-6,9.5-7.9,4.2-2,9.2-3,14.9-3s9.6.9,13.7,2.7c4,1.7,7.1,4.5,9.5,8.4,2.4,3.9,3.6,9.3,3.6,16v39.1c0,6.7-1.2,12.1-3.6,16-2.4,3.9-5.5,6.7-9.6,8.4-4.2,1.8-8.8,2.7-13.8,2.7Z"/>
  </g>
</svg>
