<?xml version="1.0" encoding="UTF-8"?>
<svg id="Layer_1" xmlns="http://www.w3.org/2000/svg" version="1.1" viewBox="0 0 1190.6 841.9">
  <!-- Generator: Adobe Illustrator 29.1.0, SVG Export Plug-In . SVG Version: 2.1.0 Build 142)  -->
  <defs>
    <style>
      .st0 {
        fill: #785da8;
      }
    </style>
  </defs>
  <g>
    <path class="st0" d="M286.8,452.1c-5.8,0-11-.9-15.4-2.6-4.5-1.7-8-3.8-10.5-6.2-2.5-2.5-3.8-4.8-3.8-7.1s.3-2.2.9-3.4c.6-1.2,1.3-2.2,2.3-3,.9-.8,1.9-1.3,3-1.3s2.4.5,3.6,1.5c1.1,1,2.5,2.3,4.1,3.7,1.6,1.4,3.6,2.7,6,3.8,2.4,1.1,5.5,1.6,9.3,1.6s6.1-.5,8.7-1.5c2.6-1,4.6-2.6,6-4.7,1.5-2.1,2.2-4.8,2.2-8s-.8-6.2-2.4-8.5c-1.6-2.2-3.7-4.1-6.3-5.6-2.6-1.5-5.5-2.9-8.5-4.2-3-1.3-6.1-2.6-9.3-4-3.1-1.4-6-3.2-8.6-5.2-2.6-2-4.7-4.6-6.2-7.7-1.6-3.1-2.4-7-2.4-11.6s.9-9,2.8-12.4c1.8-3.3,4.3-6,7.3-7.9,3-2,6.4-3.4,10.1-4.2,3.7-.9,7.3-1.3,10.9-1.3s4.7.2,7.5.5c2.7.3,5.4.9,8,1.6,2.6.8,4.7,1.8,6.4,3,1.7,1.3,2.6,2.8,2.6,4.6s-.2,1.9-.7,3.2c-.4,1.2-1.1,2.3-1.9,3.2-.9.9-1.9,1.3-3.3,1.3s-2.5-.4-3.9-1.3c-1.4-.9-3.3-1.7-5.6-2.6-2.3-.9-5.3-1.3-9.1-1.3s-6.1.4-8.7,1.3c-2.6.9-4.5,2.2-6,4-1.4,1.7-2.1,4.1-2.1,6.9s.8,5.2,2.4,7.1c1.6,1.8,3.6,3.4,6.2,4.7,2.6,1.3,5.4,2.5,8.5,3.7,3.1,1.2,6.2,2.5,9.3,4.1,3.1,1.6,6,3.5,8.6,5.7,2.6,2.2,4.7,5.1,6.3,8.5,1.6,3.4,2.4,7.7,2.4,12.8s-1.3,11.8-4,16.1c-2.6,4.3-6.3,7.4-10.9,9.5-4.6,2.1-9.9,3.1-15.8,3.1Z"/>
    <path class="st0" d="M336.2,371.4c-2.2,0-4.2-.8-5.8-2.3-1.6-1.5-2.4-3.2-2.4-5.1s.8-3.8,2.4-5.2c1.6-1.4,3.5-2.1,5.8-2.1s4.1.7,5.7,2.1c1.6,1.4,2.4,3.2,2.4,5.2s-.8,3.6-2.4,5.1c-1.6,1.5-3.5,2.3-5.7,2.3ZM336.2,451.1c-2.1,0-3.7-.5-5-1.5-1.3-1-1.9-2.1-1.9-3.2v-54.4c0-1.3.6-2.4,1.9-3.3,1.3-.9,3-1.3,5-1.3s3.6.4,5,1.3c1.4.9,2.1,1.9,2.1,3.3v54.4c0,1.2-.7,2.2-2.1,3.2-1.4,1-3.1,1.5-5,1.5Z"/>
    <path class="st0" d="M365,451.1c-2.1,0-3.7-.5-5-1.5-1.3-1-1.9-2.1-1.9-3.2v-54.4c0-1.3.6-2.4,1.9-3.3,1.3-.9,3-1.3,5-1.3s3.2.4,4.4,1.3c1.3.9,1.9,1.9,1.9,3.3v4.8c1.5-2.6,3.8-4.9,6.7-7.1,3-2.1,6.7-3.2,11.2-3.2s7.6,1.3,10.7,3.8c3.1,2.5,5.4,5.7,6.9,9.7,2.3-4.6,5.3-7.9,9-10.1,3.7-2.2,7.4-3.3,11.3-3.3s7.8,1,11.4,3.1c3.5,2.1,6.4,5.1,8.7,9,2.2,3.9,3.4,8.7,3.4,14.4v33.3c0,1.2-.7,2.2-2.1,3.2-1.4,1-3.1,1.5-5,1.5s-3.5-.5-4.9-1.5c-1.4-1-2.1-2.1-2.1-3.2v-33.3c0-3-.6-5.6-1.8-7.7-1.2-2.1-2.8-3.7-4.7-4.8-1.9-1.1-3.9-1.6-6-1.6s-4.2.6-6,1.7c-1.9,1.1-3.4,2.7-4.7,4.7-1.3,2-1.9,4.5-1.9,7.5v33.7c0,1.6-.7,2.8-2.2,3.5-1.5.7-3.1,1.1-4.9,1.1s-3.2-.4-4.7-1.1c-1.5-.7-2.3-1.9-2.3-3.5v-33.6c0-2.9-.6-5.3-1.7-7.4-1.2-2.1-2.7-3.6-4.6-4.8-1.9-1.1-3.9-1.7-6.2-1.7s-4.1.5-6,1.6c-1.9,1.1-3.5,2.6-4.7,4.7-1.2,2.1-1.8,4.6-1.8,7.7v33.3c0,1.2-.7,2.2-2.1,3.2-1.4,1-3.1,1.5-5,1.5Z"/>
    <path class="st0" d="M471.6,481.3c-2,0-3.6-.5-4.9-1.5-1.3-1-1.9-2.1-1.9-3.2v-84.6c0-1.3.6-2.4,1.9-3.3,1.3-.9,2.9-1.3,4.8-1.3s3.4.4,4.7,1.3c1.3.9,1.9,1.9,1.9,3.3v4.8c1.5-2.6,3.8-4.9,6.9-7.1,3.1-2.1,6.8-3.2,11.1-3.2s8.6,1.2,12.2,3.6c3.7,2.4,6.6,5.6,8.7,9.5,2.1,4,3.2,8.4,3.2,13.4v12.4c0,4.7-1.1,9-3.3,13.1-2.2,4.1-5.1,7.4-8.7,9.9-3.6,2.5-7.5,3.8-11.7,3.8s-7.7-1.1-10.9-3.2c-3.2-2.1-5.5-4.5-6.9-7.3v34.9c0,1.2-.7,2.2-2.1,3.2-1.4,1-3.1,1.5-5.2,1.5ZM492.5,439.6c2.4,0,4.7-.7,6.7-2,2.1-1.3,3.7-3.1,5-5.4,1.3-2.2,1.9-4.5,1.9-6.9v-12.4c0-2.3-.6-4.6-1.9-6.7-1.3-2.1-2.9-3.9-5-5.2-2.1-1.3-4.5-2-7.1-2s-4.3.6-6.3,1.7c-2.1,1.1-3.7,2.7-5,4.8-1.3,2.1-1.9,4.6-1.9,7.5v15.4c0,1.1.6,2.5,1.7,4.2,1.2,1.7,2.8,3.3,4.8,4.8,2.1,1.4,4.4,2.1,7,2.1Z"/>
    <path class="st0" d="M540.8,451.1c-2.1,0-3.7-.5-5-1.5-1.3-1-1.9-2.1-1.9-3.2v-92.3c0-1.3.6-2.4,1.9-3.3,1.3-.9,3-1.3,5-1.3s3.6.4,5,1.3c1.4.9,2.1,1.9,2.1,3.3v92.3c0,1.2-.7,2.2-2.1,3.2-1.4,1-3.1,1.5-5,1.5Z"/>
    <path class="st0" d="M564.1,481.3c-1.8,0-3.3-.4-4.6-1.1-1.3-.8-1.9-2.4-1.9-4.9s.3-3,.8-4.2c.5-1.2,1.5-1.8,3-1.8s3.6-.4,5.6-1.3c2-.9,4-2.2,5.9-4,1.9-1.8,3.6-4.1,5-6.9,1.4-2.8,2.4-6,2.9-9.8l-22.7-52.1c-.4-.6-.5-1.3-.5-1.9,0-1.2.5-2.3,1.5-3.3,1-1,2.3-1.9,3.7-2.5,1.4-.6,2.8-.9,4-.9s1.8.2,2.6.6c.9.4,1.4,1.1,1.7,1.9l16.9,43.7,14.6-43.7c.3-.9.8-1.5,1.6-1.9.8-.4,1.6-.6,2.4-.6s2.4.3,3.8.9c1.5.6,2.8,1.5,3.9,2.5,1.1,1,1.7,2.2,1.7,3.6s-.1,1.3-.4,1.6l-20.2,52.5c-1.4,3.8-2.9,7.8-4.4,11.8-1.5,4-3.4,7.6-5.6,10.9-2.2,3.3-5,6-8.5,8-3.4,2-7.8,3-13,3Z"/>
  </g>
  <g>
    <path class="st0" d="M655,451.9c-5.4,0-10.3-1-14.8-3-4.5-2-8.1-5.1-10.8-9.5-2.7-4.4-4-10.2-4-17.5v-39.1c0-7.3,1.3-13.1,4-17.5,2.7-4.4,6.3-7.6,10.9-9.5,4.6-2,9.5-3,14.9-3s11.5,1.1,16.1,3.2c4.5,2.1,8.1,5,10.6,8.6,2.6,3.6,3.8,7.8,3.8,12.6s-.6,5-1.7,6c-1.2.9-3,1.4-5.4,1.4s-3.9-.4-5.1-1.1c-1.3-.8-1.9-1.9-2-3.6,0-1.2-.3-2.6-.7-4.2-.4-1.6-1.1-3.2-2.1-4.8-1-1.6-2.6-2.9-4.6-3.9-2.1-1-4.9-1.5-8.5-1.5-5.2,0-9.2,1.4-12,4.2-2.8,2.8-4.2,7.2-4.2,13.1v39.1c0,5.9,1.4,10.3,4.2,13.1s6.9,4.2,12.3,4.2,6.1-.5,8.1-1.5c2-1,3.5-2.3,4.5-3.9,1-1.6,1.7-3.2,2-5,.4-1.7.6-3.3.8-4.8,0-1.7.8-2.9,2.1-3.6,1.3-.7,2.9-1.1,4.9-1.1s4.3.5,5.5,1.5c1.2,1,1.7,3,1.7,5.9,0,4.8-1.3,9.2-3.8,13-2.6,3.8-6.1,6.8-10.7,8.9-4.6,2.1-9.9,3.2-16.1,3.2Z"/>
    <path class="st0" d="M726.6,451.1c-2.1,0-3.7-.5-5-1.5-1.3-1-1.9-2.1-1.9-3.2v-92.3c0-1.3.6-2.4,1.9-3.3,1.3-.9,3-1.3,5-1.3s3.6.4,5,1.3c1.4.9,2.1,1.9,2.1,3.3v42.7c1.3-2.6,3.5-4.9,6.4-7.1,2.9-2.1,6.5-3.2,10.8-3.2s8.1,1.2,11.6,3.6c3.5,2.4,6.4,5.6,8.5,9.5,2.1,4,3.2,8.4,3.2,13.4v33.3c0,1.5-.7,2.7-2.2,3.5-1.5.8-3.1,1.2-4.9,1.2s-3.2-.4-4.7-1.2c-1.5-.8-2.3-2-2.3-3.5v-33.3c0-2.3-.6-4.6-1.9-6.7-1.3-2.1-2.9-3.9-4.9-5.2-2-1.3-4.3-2-6.8-2s-4.2.6-6.2,1.7c-2,1.1-3.6,2.7-4.8,4.8-1.3,2.1-1.9,4.6-1.9,7.5v33.3c0,1.2-.7,2.2-2.1,3.2-1.4,1-3.1,1.5-5,1.5Z"/>
    <path class="st0" d="M802.2,452.1c-4.9,0-9.1-1.5-12.6-4.4-3.5-2.9-5.2-7.4-5.2-13.4s1.3-9,4-11.8c2.7-2.8,6.4-4.7,11.1-5.8,4.7-1.1,10.1-1.6,16.3-1.6h5.9v-2.4c0-2.3-.4-4.6-1.3-6.8-.9-2.2-2.2-4-4.2-5.5-1.9-1.5-4.5-2.2-7.9-2.2s-5.9.3-7.7.9c-1.8.6-3.2,1.3-4.3,2-1.1.7-2.1,1.1-3,1.1-1.6,0-2.9-.8-3.8-2.4-.9-1.6-1.3-3.2-1.3-4.8s1.1-3.1,3.2-4.4c2.1-1.3,4.7-2.3,7.9-3.1,3.1-.8,6.2-1.1,9.3-1.1,6.6,0,11.9,1.2,15.9,3.7,3.9,2.5,6.8,5.7,8.6,9.6,1.8,3.9,2.7,8.2,2.7,12.8v33.7c0,1.3-.7,2.4-1.9,3.3-1.3.9-2.9,1.4-4.9,1.4s-3.3-.5-4.6-1.4c-1.3-.9-1.9-2-1.9-3.3v-4.7c-2.3,2.7-5.2,5.1-8.5,7.3-3.3,2.1-7.3,3.2-11.8,3.2ZM807.3,441.4c2.2,0,4.5-.7,6.7-2,2.2-1.3,4-3,5.5-5.1,1.5-2.1,2.2-4.2,2.2-6.3v-5h-3.4c-3.4,0-6.6.2-9.7.6-3,.4-5.5,1.3-7.3,2.7-1.8,1.4-2.8,3.5-2.8,6.4s.8,5.3,2.5,6.6c1.7,1.4,3.7,2.1,6.2,2.1Z"/>
    <path class="st0" d="M857,371.4c-2.2,0-4.2-.8-5.8-2.3-1.6-1.5-2.4-3.2-2.4-5.1s.8-3.8,2.4-5.2c1.6-1.4,3.5-2.1,5.8-2.1s4.1.7,5.7,2.1c1.6,1.4,2.4,3.2,2.4,5.2s-.8,3.6-2.4,5.1c-1.6,1.5-3.5,2.3-5.7,2.3ZM857,451.1c-2.1,0-3.7-.5-5-1.5-1.3-1-1.9-2.1-1.9-3.2v-54.4c0-1.3.6-2.4,1.9-3.3,1.3-.9,3-1.3,5-1.3s3.6.4,5,1.3c1.4.9,2.1,1.9,2.1,3.3v54.4c0,1.2-.7,2.2-2.1,3.2-1.4,1-3.1,1.5-5,1.5Z"/>
    <path class="st0" d="M885.8,451.1c-2.1,0-3.7-.5-5-1.5-1.3-1-1.9-2.1-1.9-3.2v-54.4c0-1.3.6-2.4,1.9-3.3,1.3-.9,3-1.3,5-1.3s3.2.4,4.4,1.3c1.3.9,1.9,1.9,1.9,3.3v4.8c1.3-2.6,3.6-4.9,6.7-7.1,3.1-2.1,6.9-3.2,11.4-3.2s8.1,1.2,11.6,3.6c3.5,2.4,6.4,5.6,8.5,9.5,2.1,4,3.2,8.4,3.2,13.4v33.3c0,1.5-.7,2.7-2.2,3.5-1.5.8-3.1,1.2-4.9,1.2s-3.2-.4-4.7-1.2c-1.5-.8-2.3-2-2.3-3.5v-33.3c0-2.3-.6-4.6-1.8-6.7-1.2-2.1-2.8-3.9-4.9-5.2-2.1-1.3-4.3-2-6.9-2s-4.2.6-6.2,1.7c-2,1.1-3.6,2.7-4.8,4.8-1.3,2.1-1.9,4.6-1.9,7.5v33.3c0,1.2-.7,2.2-2.1,3.2-1.4,1-3.1,1.5-5,1.5Z"/>
  </g>
  <path class="st0" d="M681.9,492.4c-5.7,0-10.7-1-14.9-2.9-4-1.9-7.2-4.5-9.5-7.7-2.2-3.2-3.3-6.7-3.3-10.9s.7-3.8.7-3.8c.4-.3,1.3-.8,3.6-.8s2.8.3,3.6.7c.3.2.6.4.7,1.3.1,1.4.4,2.9.7,4.6.4,1.9,1.3,3.9,2.5,5.7,1.3,2,3.2,3.6,5.7,4.9,2.5,1.2,5.7,1.8,9.7,1.8,6,0,10.7-1.7,14-5.1,3.3-3.4,5-8.4,5-15.1v-39.1c0-6.7-1.7-11.7-5.1-15.1-3.4-3.4-8.2-5.1-14.3-5.1s-7,.6-9.4,1.9c-2.5,1.3-4.3,2.9-5.6,4.9-1.2,1.8-2,3.8-2.4,5.9-.4,1.8-.7,3.5-.8,5h0c0,.1,0,.2,0,.2,0,1-.4,1.2-.6,1.3-.9.5-2.1.7-3.5.7-2.4,0-3.3-.5-3.7-.8,0,0-.7-.7-.7-3.7s1.1-8,3.3-11.4c2.2-3.4,5.5-6,9.5-7.9,4.2-2,9.2-3,14.9-3s9.6.9,13.7,2.7c4,1.7,7.1,4.5,9.5,8.4,2.4,3.9,3.6,9.3,3.6,16v39.1c0,6.7-1.2,12.1-3.6,16-2.4,3.9-5.5,6.7-9.6,8.4-4.2,1.8-8.8,2.7-13.8,2.7Z"/>
</svg>